<mxfile host="app.diagrams.net" modified="2021-09-02T17:32:36.542Z" agent="5.0 (X11; Linux x86_64) AppleWebKit/537.36 (KHTML, like Gecko) Chrome/92.0.4515.131 Safari/537.36" etag="zXewSIfgxtIavJ7YO4ld" version="15.0.6" type="github">
  <diagram id="R2lEEEUBdFMjLlhIrx00" name="Page-1">
    <mxGraphModel dx="955" dy="544" grid="1" gridSize="10" guides="1" tooltips="1" connect="1" arrows="1" fold="1" page="1" pageScale="1" pageWidth="850" pageHeight="1100" math="0" shadow="0" extFonts="Permanent Marker^https://fonts.googleapis.com/css?family=Permanent+Marker">
      <root>
        <mxCell id="0" />
        <mxCell id="1" parent="0" />
        <mxCell id="ufYMYRmRnnJekxyFTIQx-1" value="" style="whiteSpace=wrap;html=1;aspect=fixed;" vertex="1" parent="1">
          <mxGeometry x="60" y="30" width="740" height="740" as="geometry" />
        </mxCell>
        <mxCell id="C-vyLk0tnHw3VtMMgP7b-1" value="" style="edgeStyle=entityRelationEdgeStyle;endArrow=ERzeroToMany;startArrow=ERone;endFill=1;startFill=0;" parent="1" target="C-vyLk0tnHw3VtMMgP7b-6" edge="1">
          <mxGeometry width="100" height="100" relative="1" as="geometry">
            <mxPoint x="375" y="325" as="sourcePoint" />
            <mxPoint x="440" y="620" as="targetPoint" />
          </mxGeometry>
        </mxCell>
        <mxCell id="C-vyLk0tnHw3VtMMgP7b-12" value="" style="edgeStyle=entityRelationEdgeStyle;endArrow=ERzeroToMany;startArrow=ERone;endFill=1;startFill=0;" parent="1" target="C-vyLk0tnHw3VtMMgP7b-17" edge="1">
          <mxGeometry width="100" height="100" relative="1" as="geometry">
            <mxPoint x="725" y="325" as="sourcePoint" />
            <mxPoint x="460" y="205" as="targetPoint" />
          </mxGeometry>
        </mxCell>
        <mxCell id="ufYMYRmRnnJekxyFTIQx-10" value="Main Page" style="text;html=1;resizable=0;autosize=1;align=center;verticalAlign=middle;points=[];fillColor=none;strokeColor=none;rounded=0;fontSize=42;fontStyle=7" vertex="1" parent="1">
          <mxGeometry x="315" y="40" width="220" height="60" as="geometry" />
        </mxCell>
        <mxCell id="ufYMYRmRnnJekxyFTIQx-11" value="PROFILE   " style="shape=table;startSize=30;container=1;collapsible=1;childLayout=tableLayout;fixedRows=1;rowLines=1;fontStyle=1;align=center;resizeLast=1;fontSize=12;resizeHeight=1;resizeWidth=1;" vertex="1" parent="1">
          <mxGeometry x="90" y="120" width="180" height="180" as="geometry">
            <mxRectangle x="90" y="120" width="90" height="30" as="alternateBounds" />
          </mxGeometry>
        </mxCell>
        <mxCell id="ufYMYRmRnnJekxyFTIQx-12" value="" style="shape=partialRectangle;collapsible=0;dropTarget=0;pointerEvents=0;fillColor=none;top=0;left=0;bottom=1;right=0;points=[[0,0.5],[1,0.5]];portConstraint=eastwest;" vertex="1" parent="ufYMYRmRnnJekxyFTIQx-11">
          <mxGeometry y="30" width="180" height="30" as="geometry" />
        </mxCell>
        <mxCell id="ufYMYRmRnnJekxyFTIQx-13" value="PK" style="shape=partialRectangle;connectable=0;fillColor=none;top=0;left=0;bottom=0;right=0;fontStyle=1;overflow=hidden;" vertex="1" parent="ufYMYRmRnnJekxyFTIQx-12">
          <mxGeometry width="30" height="30" as="geometry" />
        </mxCell>
        <mxCell id="ufYMYRmRnnJekxyFTIQx-14" value="PROFILE_ID" style="shape=partialRectangle;connectable=0;fillColor=none;top=0;left=0;bottom=0;right=0;align=left;spacingLeft=6;fontStyle=5;overflow=hidden;" vertex="1" parent="ufYMYRmRnnJekxyFTIQx-12">
          <mxGeometry x="30" width="150" height="30" as="geometry" />
        </mxCell>
        <mxCell id="ufYMYRmRnnJekxyFTIQx-15" value="" style="shape=partialRectangle;collapsible=0;dropTarget=0;pointerEvents=0;fillColor=none;top=0;left=0;bottom=0;right=0;points=[[0,0.5],[1,0.5]];portConstraint=eastwest;fontStyle=1" vertex="1" parent="ufYMYRmRnnJekxyFTIQx-11">
          <mxGeometry y="60" width="180" height="30" as="geometry" />
        </mxCell>
        <mxCell id="ufYMYRmRnnJekxyFTIQx-16" value="" style="shape=partialRectangle;connectable=0;fillColor=none;top=0;left=0;bottom=0;right=0;editable=1;overflow=hidden;" vertex="1" parent="ufYMYRmRnnJekxyFTIQx-15">
          <mxGeometry width="30" height="30" as="geometry" />
        </mxCell>
        <mxCell id="ufYMYRmRnnJekxyFTIQx-17" value="NAME - NVARCHAR" style="shape=partialRectangle;connectable=0;fillColor=none;top=0;left=0;bottom=0;right=0;align=left;spacingLeft=6;overflow=hidden;fontStyle=0" vertex="1" parent="ufYMYRmRnnJekxyFTIQx-15">
          <mxGeometry x="30" width="150" height="30" as="geometry" />
        </mxCell>
        <mxCell id="ufYMYRmRnnJekxyFTIQx-18" value="" style="shape=partialRectangle;collapsible=0;dropTarget=0;pointerEvents=0;fillColor=none;top=0;left=0;bottom=0;right=0;points=[[0,0.5],[1,0.5]];portConstraint=eastwest;" vertex="1" parent="ufYMYRmRnnJekxyFTIQx-11">
          <mxGeometry y="90" width="180" height="30" as="geometry" />
        </mxCell>
        <mxCell id="ufYMYRmRnnJekxyFTIQx-19" value="" style="shape=partialRectangle;connectable=0;fillColor=none;top=0;left=0;bottom=0;right=0;editable=1;overflow=hidden;" vertex="1" parent="ufYMYRmRnnJekxyFTIQx-18">
          <mxGeometry width="30" height="30" as="geometry" />
        </mxCell>
        <mxCell id="ufYMYRmRnnJekxyFTIQx-20" value="DOB - DATE" style="shape=partialRectangle;connectable=0;fillColor=none;top=0;left=0;bottom=0;right=0;align=left;spacingLeft=6;overflow=hidden;" vertex="1" parent="ufYMYRmRnnJekxyFTIQx-18">
          <mxGeometry x="30" width="150" height="30" as="geometry" />
        </mxCell>
        <mxCell id="ufYMYRmRnnJekxyFTIQx-21" value="" style="shape=partialRectangle;collapsible=0;dropTarget=0;pointerEvents=0;fillColor=none;top=0;left=0;bottom=0;right=0;points=[[0,0.5],[1,0.5]];portConstraint=eastwest;" vertex="1" parent="ufYMYRmRnnJekxyFTIQx-11">
          <mxGeometry y="120" width="180" height="30" as="geometry" />
        </mxCell>
        <mxCell id="ufYMYRmRnnJekxyFTIQx-22" value="" style="shape=partialRectangle;connectable=0;fillColor=none;top=0;left=0;bottom=0;right=0;editable=1;overflow=hidden;" vertex="1" parent="ufYMYRmRnnJekxyFTIQx-21">
          <mxGeometry width="30" height="30" as="geometry" />
        </mxCell>
        <mxCell id="ufYMYRmRnnJekxyFTIQx-23" value="LOCATION - NVARCHAR" style="shape=partialRectangle;connectable=0;fillColor=none;top=0;left=0;bottom=0;right=0;align=left;spacingLeft=6;overflow=hidden;" vertex="1" parent="ufYMYRmRnnJekxyFTIQx-21">
          <mxGeometry x="30" width="150" height="30" as="geometry" />
        </mxCell>
        <mxCell id="ufYMYRmRnnJekxyFTIQx-27" value="" style="shape=partialRectangle;collapsible=0;dropTarget=0;pointerEvents=0;fillColor=none;top=0;left=0;bottom=0;right=0;points=[[0,0.5],[1,0.5]];portConstraint=eastwest;fontSize=12;" vertex="1" parent="ufYMYRmRnnJekxyFTIQx-11">
          <mxGeometry y="150" width="180" height="30" as="geometry" />
        </mxCell>
        <mxCell id="ufYMYRmRnnJekxyFTIQx-28" value="" style="shape=partialRectangle;connectable=0;fillColor=none;top=0;left=0;bottom=0;right=0;editable=1;overflow=hidden;" vertex="1" parent="ufYMYRmRnnJekxyFTIQx-27">
          <mxGeometry width="30" height="30" as="geometry" />
        </mxCell>
        <mxCell id="ufYMYRmRnnJekxyFTIQx-29" value="ABOUT - TEXT" style="shape=partialRectangle;connectable=0;fillColor=none;top=0;left=0;bottom=0;right=0;align=left;spacingLeft=6;overflow=hidden;" vertex="1" parent="ufYMYRmRnnJekxyFTIQx-27">
          <mxGeometry x="30" width="150" height="30" as="geometry" />
        </mxCell>
        <mxCell id="ufYMYRmRnnJekxyFTIQx-31" value="EXPREINCES" style="shape=table;startSize=30;container=1;collapsible=1;childLayout=tableLayout;fixedRows=1;rowLines=1;fontStyle=1;align=center;resizeLast=1;fontSize=12;resizeHeight=1;resizeWidth=1;" vertex="1" parent="1">
          <mxGeometry x="335" y="120" width="180" height="270" as="geometry">
            <mxRectangle x="90" y="120" width="90" height="30" as="alternateBounds" />
          </mxGeometry>
        </mxCell>
        <mxCell id="ufYMYRmRnnJekxyFTIQx-32" value="" style="shape=partialRectangle;collapsible=0;dropTarget=0;pointerEvents=0;fillColor=none;top=0;left=0;bottom=1;right=0;points=[[0,0.5],[1,0.5]];portConstraint=eastwest;" vertex="1" parent="ufYMYRmRnnJekxyFTIQx-31">
          <mxGeometry y="30" width="180" height="30" as="geometry" />
        </mxCell>
        <mxCell id="ufYMYRmRnnJekxyFTIQx-33" value="PK" style="shape=partialRectangle;connectable=0;fillColor=none;top=0;left=0;bottom=0;right=0;fontStyle=1;overflow=hidden;" vertex="1" parent="ufYMYRmRnnJekxyFTIQx-32">
          <mxGeometry width="30" height="30" as="geometry" />
        </mxCell>
        <mxCell id="ufYMYRmRnnJekxyFTIQx-34" value="EXP_ID" style="shape=partialRectangle;connectable=0;fillColor=none;top=0;left=0;bottom=0;right=0;align=left;spacingLeft=6;fontStyle=5;overflow=hidden;" vertex="1" parent="ufYMYRmRnnJekxyFTIQx-32">
          <mxGeometry x="30" width="150" height="30" as="geometry" />
        </mxCell>
        <mxCell id="ufYMYRmRnnJekxyFTIQx-35" value="" style="shape=partialRectangle;collapsible=0;dropTarget=0;pointerEvents=0;fillColor=none;top=0;left=0;bottom=0;right=0;points=[[0,0.5],[1,0.5]];portConstraint=eastwest;fontStyle=1" vertex="1" parent="ufYMYRmRnnJekxyFTIQx-31">
          <mxGeometry y="60" width="180" height="30" as="geometry" />
        </mxCell>
        <mxCell id="ufYMYRmRnnJekxyFTIQx-36" value="" style="shape=partialRectangle;connectable=0;fillColor=none;top=0;left=0;bottom=0;right=0;editable=1;overflow=hidden;" vertex="1" parent="ufYMYRmRnnJekxyFTIQx-35">
          <mxGeometry width="30" height="30" as="geometry" />
        </mxCell>
        <mxCell id="ufYMYRmRnnJekxyFTIQx-37" value="NAME - NVARCHAR" style="shape=partialRectangle;connectable=0;fillColor=none;top=0;left=0;bottom=0;right=0;align=left;spacingLeft=6;overflow=hidden;fontStyle=0" vertex="1" parent="ufYMYRmRnnJekxyFTIQx-35">
          <mxGeometry x="30" width="150" height="30" as="geometry" />
        </mxCell>
        <mxCell id="ufYMYRmRnnJekxyFTIQx-38" value="" style="shape=partialRectangle;collapsible=0;dropTarget=0;pointerEvents=0;fillColor=none;top=0;left=0;bottom=0;right=0;points=[[0,0.5],[1,0.5]];portConstraint=eastwest;" vertex="1" parent="ufYMYRmRnnJekxyFTIQx-31">
          <mxGeometry y="90" width="180" height="30" as="geometry" />
        </mxCell>
        <mxCell id="ufYMYRmRnnJekxyFTIQx-39" value="" style="shape=partialRectangle;connectable=0;fillColor=none;top=0;left=0;bottom=0;right=0;editable=1;overflow=hidden;" vertex="1" parent="ufYMYRmRnnJekxyFTIQx-38">
          <mxGeometry width="30" height="30" as="geometry" />
        </mxCell>
        <mxCell id="ufYMYRmRnnJekxyFTIQx-40" value="DATE_FIRST - DATE" style="shape=partialRectangle;connectable=0;fillColor=none;top=0;left=0;bottom=0;right=0;align=left;spacingLeft=6;overflow=hidden;" vertex="1" parent="ufYMYRmRnnJekxyFTIQx-38">
          <mxGeometry x="30" width="150" height="30" as="geometry" />
        </mxCell>
        <mxCell id="ufYMYRmRnnJekxyFTIQx-41" value="" style="shape=partialRectangle;collapsible=0;dropTarget=0;pointerEvents=0;fillColor=none;top=0;left=0;bottom=0;right=0;points=[[0,0.5],[1,0.5]];portConstraint=eastwest;" vertex="1" parent="ufYMYRmRnnJekxyFTIQx-31">
          <mxGeometry y="120" width="180" height="30" as="geometry" />
        </mxCell>
        <mxCell id="ufYMYRmRnnJekxyFTIQx-42" value="" style="shape=partialRectangle;connectable=0;fillColor=none;top=0;left=0;bottom=0;right=0;editable=1;overflow=hidden;" vertex="1" parent="ufYMYRmRnnJekxyFTIQx-41">
          <mxGeometry width="30" height="30" as="geometry" />
        </mxCell>
        <mxCell id="ufYMYRmRnnJekxyFTIQx-43" value="DATE_LAST - DATE" style="shape=partialRectangle;connectable=0;fillColor=none;top=0;left=0;bottom=0;right=0;align=left;spacingLeft=6;overflow=hidden;" vertex="1" parent="ufYMYRmRnnJekxyFTIQx-41">
          <mxGeometry x="30" width="150" height="30" as="geometry" />
        </mxCell>
        <mxCell id="ufYMYRmRnnJekxyFTIQx-47" value="" style="shape=partialRectangle;collapsible=0;dropTarget=0;pointerEvents=0;fillColor=none;top=0;left=0;bottom=0;right=0;points=[[0,0.5],[1,0.5]];portConstraint=eastwest;fontSize=12;" vertex="1" parent="ufYMYRmRnnJekxyFTIQx-31">
          <mxGeometry y="150" width="180" height="30" as="geometry" />
        </mxCell>
        <mxCell id="ufYMYRmRnnJekxyFTIQx-48" value="" style="shape=partialRectangle;connectable=0;fillColor=none;top=0;left=0;bottom=0;right=0;editable=1;overflow=hidden;" vertex="1" parent="ufYMYRmRnnJekxyFTIQx-47">
          <mxGeometry width="30" height="30" as="geometry" />
        </mxCell>
        <mxCell id="ufYMYRmRnnJekxyFTIQx-49" value="INFO - TEXT" style="shape=partialRectangle;connectable=0;fillColor=none;top=0;left=0;bottom=0;right=0;align=left;spacingLeft=6;overflow=hidden;" vertex="1" parent="ufYMYRmRnnJekxyFTIQx-47">
          <mxGeometry x="30" width="150" height="30" as="geometry" />
        </mxCell>
        <mxCell id="ufYMYRmRnnJekxyFTIQx-44" value="" style="shape=partialRectangle;collapsible=0;dropTarget=0;pointerEvents=0;fillColor=none;top=0;left=0;bottom=0;right=0;points=[[0,0.5],[1,0.5]];portConstraint=eastwest;fontSize=12;" vertex="1" parent="ufYMYRmRnnJekxyFTIQx-31">
          <mxGeometry y="180" width="180" height="30" as="geometry" />
        </mxCell>
        <mxCell id="ufYMYRmRnnJekxyFTIQx-45" value="" style="shape=partialRectangle;connectable=0;fillColor=none;top=0;left=0;bottom=0;right=0;editable=1;overflow=hidden;" vertex="1" parent="ufYMYRmRnnJekxyFTIQx-44">
          <mxGeometry width="30" height="30" as="geometry" />
        </mxCell>
        <mxCell id="ufYMYRmRnnJekxyFTIQx-46" value="LOCATION - NVARCHAR" style="shape=partialRectangle;connectable=0;fillColor=none;top=0;left=0;bottom=0;right=0;align=left;spacingLeft=6;overflow=hidden;" vertex="1" parent="ufYMYRmRnnJekxyFTIQx-44">
          <mxGeometry x="30" width="150" height="30" as="geometry" />
        </mxCell>
        <mxCell id="ufYMYRmRnnJekxyFTIQx-50" value="" style="shape=partialRectangle;collapsible=0;dropTarget=0;pointerEvents=0;fillColor=none;top=0;left=0;bottom=0;right=0;points=[[0,0.5],[1,0.5]];portConstraint=eastwest;fontSize=12;" vertex="1" parent="ufYMYRmRnnJekxyFTIQx-31">
          <mxGeometry y="210" width="180" height="30" as="geometry" />
        </mxCell>
        <mxCell id="ufYMYRmRnnJekxyFTIQx-51" value="" style="shape=partialRectangle;connectable=0;fillColor=none;top=0;left=0;bottom=0;right=0;editable=1;overflow=hidden;" vertex="1" parent="ufYMYRmRnnJekxyFTIQx-50">
          <mxGeometry width="30" height="30" as="geometry" />
        </mxCell>
        <mxCell id="ufYMYRmRnnJekxyFTIQx-52" value="TYPE - NVARCHAR" style="shape=partialRectangle;connectable=0;fillColor=none;top=0;left=0;bottom=0;right=0;align=left;spacingLeft=6;overflow=hidden;" vertex="1" parent="ufYMYRmRnnJekxyFTIQx-50">
          <mxGeometry x="30" width="150" height="30" as="geometry" />
        </mxCell>
        <mxCell id="ufYMYRmRnnJekxyFTIQx-53" value="" style="shape=partialRectangle;collapsible=0;dropTarget=0;pointerEvents=0;fillColor=none;top=0;left=0;bottom=0;right=0;points=[[0,0.5],[1,0.5]];portConstraint=eastwest;fontSize=12;" vertex="1" parent="ufYMYRmRnnJekxyFTIQx-31">
          <mxGeometry y="240" width="180" height="30" as="geometry" />
        </mxCell>
        <mxCell id="ufYMYRmRnnJekxyFTIQx-54" value="" style="shape=partialRectangle;connectable=0;fillColor=none;top=0;left=0;bottom=0;right=0;editable=1;overflow=hidden;" vertex="1" parent="ufYMYRmRnnJekxyFTIQx-53">
          <mxGeometry width="30" height="30" as="geometry" />
        </mxCell>
        <mxCell id="ufYMYRmRnnJekxyFTIQx-55" value="WEBSITE - NVARHCAR" style="shape=partialRectangle;connectable=0;fillColor=none;top=0;left=0;bottom=0;right=0;align=left;spacingLeft=6;overflow=hidden;" vertex="1" parent="ufYMYRmRnnJekxyFTIQx-53">
          <mxGeometry x="30" width="150" height="30" as="geometry" />
        </mxCell>
        <mxCell id="ufYMYRmRnnJekxyFTIQx-56" value="ABILITIES" style="shape=table;startSize=30;container=1;collapsible=1;childLayout=tableLayout;fixedRows=1;rowLines=1;fontStyle=1;align=center;resizeLast=1;fontSize=12;resizeHeight=1;resizeWidth=1;" vertex="1" parent="1">
          <mxGeometry x="590" y="120" width="180" height="150" as="geometry">
            <mxRectangle x="90" y="120" width="90" height="30" as="alternateBounds" />
          </mxGeometry>
        </mxCell>
        <mxCell id="ufYMYRmRnnJekxyFTIQx-57" value="" style="shape=partialRectangle;collapsible=0;dropTarget=0;pointerEvents=0;fillColor=none;top=0;left=0;bottom=1;right=0;points=[[0,0.5],[1,0.5]];portConstraint=eastwest;" vertex="1" parent="ufYMYRmRnnJekxyFTIQx-56">
          <mxGeometry y="30" width="180" height="30" as="geometry" />
        </mxCell>
        <mxCell id="ufYMYRmRnnJekxyFTIQx-58" value="PK" style="shape=partialRectangle;connectable=0;fillColor=none;top=0;left=0;bottom=0;right=0;fontStyle=1;overflow=hidden;" vertex="1" parent="ufYMYRmRnnJekxyFTIQx-57">
          <mxGeometry width="30" height="30" as="geometry" />
        </mxCell>
        <mxCell id="ufYMYRmRnnJekxyFTIQx-59" value="ABILITIES_ID" style="shape=partialRectangle;connectable=0;fillColor=none;top=0;left=0;bottom=0;right=0;align=left;spacingLeft=6;fontStyle=5;overflow=hidden;" vertex="1" parent="ufYMYRmRnnJekxyFTIQx-57">
          <mxGeometry x="30" width="150" height="30" as="geometry" />
        </mxCell>
        <mxCell id="ufYMYRmRnnJekxyFTIQx-60" value="" style="shape=partialRectangle;collapsible=0;dropTarget=0;pointerEvents=0;fillColor=none;top=0;left=0;bottom=0;right=0;points=[[0,0.5],[1,0.5]];portConstraint=eastwest;fontStyle=1" vertex="1" parent="ufYMYRmRnnJekxyFTIQx-56">
          <mxGeometry y="60" width="180" height="30" as="geometry" />
        </mxCell>
        <mxCell id="ufYMYRmRnnJekxyFTIQx-61" value="" style="shape=partialRectangle;connectable=0;fillColor=none;top=0;left=0;bottom=0;right=0;editable=1;overflow=hidden;" vertex="1" parent="ufYMYRmRnnJekxyFTIQx-60">
          <mxGeometry width="30" height="30" as="geometry" />
        </mxCell>
        <mxCell id="ufYMYRmRnnJekxyFTIQx-62" value="NAME - NVARCHAR" style="shape=partialRectangle;connectable=0;fillColor=none;top=0;left=0;bottom=0;right=0;align=left;spacingLeft=6;overflow=hidden;fontStyle=0" vertex="1" parent="ufYMYRmRnnJekxyFTIQx-60">
          <mxGeometry x="30" width="150" height="30" as="geometry" />
        </mxCell>
        <mxCell id="ufYMYRmRnnJekxyFTIQx-63" value="" style="shape=partialRectangle;collapsible=0;dropTarget=0;pointerEvents=0;fillColor=none;top=0;left=0;bottom=0;right=0;points=[[0,0.5],[1,0.5]];portConstraint=eastwest;" vertex="1" parent="ufYMYRmRnnJekxyFTIQx-56">
          <mxGeometry y="90" width="180" height="30" as="geometry" />
        </mxCell>
        <mxCell id="ufYMYRmRnnJekxyFTIQx-64" value="" style="shape=partialRectangle;connectable=0;fillColor=none;top=0;left=0;bottom=0;right=0;editable=1;overflow=hidden;" vertex="1" parent="ufYMYRmRnnJekxyFTIQx-63">
          <mxGeometry width="30" height="30" as="geometry" />
        </mxCell>
        <mxCell id="ufYMYRmRnnJekxyFTIQx-65" value="RATE - INT" style="shape=partialRectangle;connectable=0;fillColor=none;top=0;left=0;bottom=0;right=0;align=left;spacingLeft=6;overflow=hidden;" vertex="1" parent="ufYMYRmRnnJekxyFTIQx-63">
          <mxGeometry x="30" width="150" height="30" as="geometry" />
        </mxCell>
        <mxCell id="ufYMYRmRnnJekxyFTIQx-81" value="" style="shape=partialRectangle;collapsible=0;dropTarget=0;pointerEvents=0;fillColor=none;top=0;left=0;bottom=0;right=0;points=[[0,0.5],[1,0.5]];portConstraint=eastwest;fontSize=12;" vertex="1" parent="ufYMYRmRnnJekxyFTIQx-56">
          <mxGeometry y="120" width="180" height="30" as="geometry" />
        </mxCell>
        <mxCell id="ufYMYRmRnnJekxyFTIQx-82" value="" style="shape=partialRectangle;connectable=0;fillColor=none;top=0;left=0;bottom=0;right=0;editable=1;overflow=hidden;" vertex="1" parent="ufYMYRmRnnJekxyFTIQx-81">
          <mxGeometry width="30" height="30" as="geometry" />
        </mxCell>
        <mxCell id="ufYMYRmRnnJekxyFTIQx-83" value="TYPE - NVARCHAR" style="shape=partialRectangle;connectable=0;fillColor=none;top=0;left=0;bottom=0;right=0;align=left;spacingLeft=6;overflow=hidden;" vertex="1" parent="ufYMYRmRnnJekxyFTIQx-81">
          <mxGeometry x="30" width="150" height="30" as="geometry" />
        </mxCell>
        <mxCell id="ufYMYRmRnnJekxyFTIQx-86" value="PROJECTS" style="shape=table;startSize=30;container=1;collapsible=1;childLayout=tableLayout;fixedRows=1;rowLines=1;fontStyle=1;align=center;resizeLast=1;fontSize=12;resizeHeight=1;resizeWidth=1;" vertex="1" parent="1">
          <mxGeometry x="90" y="470" width="180" height="180" as="geometry">
            <mxRectangle x="90" y="120" width="90" height="30" as="alternateBounds" />
          </mxGeometry>
        </mxCell>
        <mxCell id="ufYMYRmRnnJekxyFTIQx-87" value="" style="shape=partialRectangle;collapsible=0;dropTarget=0;pointerEvents=0;fillColor=none;top=0;left=0;bottom=1;right=0;points=[[0,0.5],[1,0.5]];portConstraint=eastwest;" vertex="1" parent="ufYMYRmRnnJekxyFTIQx-86">
          <mxGeometry y="30" width="180" height="30" as="geometry" />
        </mxCell>
        <mxCell id="ufYMYRmRnnJekxyFTIQx-88" value="PK" style="shape=partialRectangle;connectable=0;fillColor=none;top=0;left=0;bottom=0;right=0;fontStyle=1;overflow=hidden;" vertex="1" parent="ufYMYRmRnnJekxyFTIQx-87">
          <mxGeometry width="30" height="30" as="geometry" />
        </mxCell>
        <mxCell id="ufYMYRmRnnJekxyFTIQx-89" value="PROJECT_ID" style="shape=partialRectangle;connectable=0;fillColor=none;top=0;left=0;bottom=0;right=0;align=left;spacingLeft=6;fontStyle=5;overflow=hidden;" vertex="1" parent="ufYMYRmRnnJekxyFTIQx-87">
          <mxGeometry x="30" width="150" height="30" as="geometry" />
        </mxCell>
        <mxCell id="ufYMYRmRnnJekxyFTIQx-90" value="" style="shape=partialRectangle;collapsible=0;dropTarget=0;pointerEvents=0;fillColor=none;top=0;left=0;bottom=0;right=0;points=[[0,0.5],[1,0.5]];portConstraint=eastwest;fontStyle=1" vertex="1" parent="ufYMYRmRnnJekxyFTIQx-86">
          <mxGeometry y="60" width="180" height="30" as="geometry" />
        </mxCell>
        <mxCell id="ufYMYRmRnnJekxyFTIQx-91" value="" style="shape=partialRectangle;connectable=0;fillColor=none;top=0;left=0;bottom=0;right=0;editable=1;overflow=hidden;" vertex="1" parent="ufYMYRmRnnJekxyFTIQx-90">
          <mxGeometry width="30" height="30" as="geometry" />
        </mxCell>
        <mxCell id="ufYMYRmRnnJekxyFTIQx-92" value="NAME - NVARCHAR" style="shape=partialRectangle;connectable=0;fillColor=none;top=0;left=0;bottom=0;right=0;align=left;spacingLeft=6;overflow=hidden;fontStyle=0" vertex="1" parent="ufYMYRmRnnJekxyFTIQx-90">
          <mxGeometry x="30" width="150" height="30" as="geometry" />
        </mxCell>
        <mxCell id="ufYMYRmRnnJekxyFTIQx-93" value="" style="shape=partialRectangle;collapsible=0;dropTarget=0;pointerEvents=0;fillColor=none;top=0;left=0;bottom=0;right=0;points=[[0,0.5],[1,0.5]];portConstraint=eastwest;" vertex="1" parent="ufYMYRmRnnJekxyFTIQx-86">
          <mxGeometry y="90" width="180" height="30" as="geometry" />
        </mxCell>
        <mxCell id="ufYMYRmRnnJekxyFTIQx-94" value="" style="shape=partialRectangle;connectable=0;fillColor=none;top=0;left=0;bottom=0;right=0;editable=1;overflow=hidden;" vertex="1" parent="ufYMYRmRnnJekxyFTIQx-93">
          <mxGeometry width="30" height="30" as="geometry" />
        </mxCell>
        <mxCell id="ufYMYRmRnnJekxyFTIQx-95" value="INFO - TEXT" style="shape=partialRectangle;connectable=0;fillColor=none;top=0;left=0;bottom=0;right=0;align=left;spacingLeft=6;overflow=hidden;" vertex="1" parent="ufYMYRmRnnJekxyFTIQx-93">
          <mxGeometry x="30" width="150" height="30" as="geometry" />
        </mxCell>
        <mxCell id="ufYMYRmRnnJekxyFTIQx-96" value="" style="shape=partialRectangle;collapsible=0;dropTarget=0;pointerEvents=0;fillColor=none;top=0;left=0;bottom=0;right=0;points=[[0,0.5],[1,0.5]];portConstraint=eastwest;" vertex="1" parent="ufYMYRmRnnJekxyFTIQx-86">
          <mxGeometry y="120" width="180" height="30" as="geometry" />
        </mxCell>
        <mxCell id="ufYMYRmRnnJekxyFTIQx-97" value="" style="shape=partialRectangle;connectable=0;fillColor=none;top=0;left=0;bottom=0;right=0;editable=1;overflow=hidden;" vertex="1" parent="ufYMYRmRnnJekxyFTIQx-96">
          <mxGeometry width="30" height="30" as="geometry" />
        </mxCell>
        <mxCell id="ufYMYRmRnnJekxyFTIQx-98" value="URL - NVARCHAR" style="shape=partialRectangle;connectable=0;fillColor=none;top=0;left=0;bottom=0;right=0;align=left;spacingLeft=6;overflow=hidden;" vertex="1" parent="ufYMYRmRnnJekxyFTIQx-96">
          <mxGeometry x="30" width="150" height="30" as="geometry" />
        </mxCell>
        <mxCell id="ufYMYRmRnnJekxyFTIQx-99" value="" style="shape=partialRectangle;collapsible=0;dropTarget=0;pointerEvents=0;fillColor=none;top=0;left=0;bottom=0;right=0;points=[[0,0.5],[1,0.5]];portConstraint=eastwest;fontSize=12;" vertex="1" parent="ufYMYRmRnnJekxyFTIQx-86">
          <mxGeometry y="150" width="180" height="30" as="geometry" />
        </mxCell>
        <mxCell id="ufYMYRmRnnJekxyFTIQx-100" value="" style="shape=partialRectangle;connectable=0;fillColor=none;top=0;left=0;bottom=0;right=0;editable=1;overflow=hidden;" vertex="1" parent="ufYMYRmRnnJekxyFTIQx-99">
          <mxGeometry width="30" height="30" as="geometry" />
        </mxCell>
        <mxCell id="ufYMYRmRnnJekxyFTIQx-101" value="ABOUT - TEXT" style="shape=partialRectangle;connectable=0;fillColor=none;top=0;left=0;bottom=0;right=0;align=left;spacingLeft=6;overflow=hidden;" vertex="1" parent="ufYMYRmRnnJekxyFTIQx-99">
          <mxGeometry x="30" width="150" height="30" as="geometry" />
        </mxCell>
        <mxCell id="ufYMYRmRnnJekxyFTIQx-102" value="TAGS" style="shape=table;startSize=30;container=1;collapsible=1;childLayout=tableLayout;fixedRows=1;rowLines=1;fontStyle=1;align=center;resizeLast=1;fontSize=12;resizeHeight=1;resizeWidth=1;" vertex="1" parent="1">
          <mxGeometry x="340" y="515" width="180" height="90" as="geometry">
            <mxRectangle x="90" y="120" width="90" height="30" as="alternateBounds" />
          </mxGeometry>
        </mxCell>
        <mxCell id="ufYMYRmRnnJekxyFTIQx-103" value="" style="shape=partialRectangle;collapsible=0;dropTarget=0;pointerEvents=0;fillColor=none;top=0;left=0;bottom=1;right=0;points=[[0,0.5],[1,0.5]];portConstraint=eastwest;" vertex="1" parent="ufYMYRmRnnJekxyFTIQx-102">
          <mxGeometry y="30" width="180" height="30" as="geometry" />
        </mxCell>
        <mxCell id="ufYMYRmRnnJekxyFTIQx-104" value="PK" style="shape=partialRectangle;connectable=0;fillColor=none;top=0;left=0;bottom=0;right=0;fontStyle=1;overflow=hidden;" vertex="1" parent="ufYMYRmRnnJekxyFTIQx-103">
          <mxGeometry width="30" height="30" as="geometry" />
        </mxCell>
        <mxCell id="ufYMYRmRnnJekxyFTIQx-105" value="TAGS_ID" style="shape=partialRectangle;connectable=0;fillColor=none;top=0;left=0;bottom=0;right=0;align=left;spacingLeft=6;fontStyle=5;overflow=hidden;" vertex="1" parent="ufYMYRmRnnJekxyFTIQx-103">
          <mxGeometry x="30" width="150" height="30" as="geometry" />
        </mxCell>
        <mxCell id="ufYMYRmRnnJekxyFTIQx-106" value="" style="shape=partialRectangle;collapsible=0;dropTarget=0;pointerEvents=0;fillColor=none;top=0;left=0;bottom=0;right=0;points=[[0,0.5],[1,0.5]];portConstraint=eastwest;fontStyle=1" vertex="1" parent="ufYMYRmRnnJekxyFTIQx-102">
          <mxGeometry y="60" width="180" height="30" as="geometry" />
        </mxCell>
        <mxCell id="ufYMYRmRnnJekxyFTIQx-107" value="" style="shape=partialRectangle;connectable=0;fillColor=none;top=0;left=0;bottom=0;right=0;editable=1;overflow=hidden;" vertex="1" parent="ufYMYRmRnnJekxyFTIQx-106">
          <mxGeometry width="30" height="30" as="geometry" />
        </mxCell>
        <mxCell id="ufYMYRmRnnJekxyFTIQx-108" value="NAME - NVARCHAR" style="shape=partialRectangle;connectable=0;fillColor=none;top=0;left=0;bottom=0;right=0;align=left;spacingLeft=6;overflow=hidden;fontStyle=0" vertex="1" parent="ufYMYRmRnnJekxyFTIQx-106">
          <mxGeometry x="30" width="150" height="30" as="geometry" />
        </mxCell>
        <mxCell id="ufYMYRmRnnJekxyFTIQx-118" value="" style="edgeStyle=orthogonalEdgeStyle;rounded=0;orthogonalLoop=1;jettySize=auto;html=1;fontSize=12;startArrow=ERzeroToMany;startFill=1;endArrow=ERzeroToMany;endFill=1;" edge="1" parent="1" source="ufYMYRmRnnJekxyFTIQx-93" target="ufYMYRmRnnJekxyFTIQx-106">
          <mxGeometry relative="1" as="geometry">
            <Array as="points">
              <mxPoint x="330" y="575" />
              <mxPoint x="330" y="575" />
            </Array>
          </mxGeometry>
        </mxCell>
        <mxCell id="ufYMYRmRnnJekxyFTIQx-119" value="" style="whiteSpace=wrap;html=1;aspect=fixed;" vertex="1" parent="1">
          <mxGeometry x="880" y="30" width="740" height="740" as="geometry" />
        </mxCell>
        <mxCell id="ufYMYRmRnnJekxyFTIQx-120" value="BLOG" style="text;html=1;resizable=0;autosize=1;align=center;verticalAlign=middle;points=[];fillColor=none;strokeColor=none;rounded=0;fontSize=42;fontStyle=7" vertex="1" parent="1">
          <mxGeometry x="1180" y="40" width="140" height="60" as="geometry" />
        </mxCell>
        <mxCell id="ufYMYRmRnnJekxyFTIQx-121" value="BLOG_EN" style="shape=table;startSize=30;container=1;collapsible=1;childLayout=tableLayout;fixedRows=1;rowLines=1;fontStyle=1;align=center;resizeLast=1;fontSize=12;resizeHeight=1;resizeWidth=1;" vertex="1" parent="1">
          <mxGeometry x="940" y="130" width="180" height="150" as="geometry">
            <mxRectangle x="90" y="120" width="90" height="30" as="alternateBounds" />
          </mxGeometry>
        </mxCell>
        <mxCell id="ufYMYRmRnnJekxyFTIQx-122" value="" style="shape=partialRectangle;collapsible=0;dropTarget=0;pointerEvents=0;fillColor=none;top=0;left=0;bottom=1;right=0;points=[[0,0.5],[1,0.5]];portConstraint=eastwest;" vertex="1" parent="ufYMYRmRnnJekxyFTIQx-121">
          <mxGeometry y="30" width="180" height="30" as="geometry" />
        </mxCell>
        <mxCell id="ufYMYRmRnnJekxyFTIQx-123" value="PK" style="shape=partialRectangle;connectable=0;fillColor=none;top=0;left=0;bottom=0;right=0;fontStyle=1;overflow=hidden;" vertex="1" parent="ufYMYRmRnnJekxyFTIQx-122">
          <mxGeometry width="30" height="30" as="geometry" />
        </mxCell>
        <mxCell id="ufYMYRmRnnJekxyFTIQx-124" value="BLOG_ID" style="shape=partialRectangle;connectable=0;fillColor=none;top=0;left=0;bottom=0;right=0;align=left;spacingLeft=6;fontStyle=5;overflow=hidden;" vertex="1" parent="ufYMYRmRnnJekxyFTIQx-122">
          <mxGeometry x="30" width="150" height="30" as="geometry" />
        </mxCell>
        <mxCell id="ufYMYRmRnnJekxyFTIQx-125" value="" style="shape=partialRectangle;collapsible=0;dropTarget=0;pointerEvents=0;fillColor=none;top=0;left=0;bottom=0;right=0;points=[[0,0.5],[1,0.5]];portConstraint=eastwest;fontStyle=1" vertex="1" parent="ufYMYRmRnnJekxyFTIQx-121">
          <mxGeometry y="60" width="180" height="30" as="geometry" />
        </mxCell>
        <mxCell id="ufYMYRmRnnJekxyFTIQx-126" value="" style="shape=partialRectangle;connectable=0;fillColor=none;top=0;left=0;bottom=0;right=0;editable=1;overflow=hidden;" vertex="1" parent="ufYMYRmRnnJekxyFTIQx-125">
          <mxGeometry width="30" height="30" as="geometry" />
        </mxCell>
        <mxCell id="ufYMYRmRnnJekxyFTIQx-127" value="TITLE - NVARCHAR" style="shape=partialRectangle;connectable=0;fillColor=none;top=0;left=0;bottom=0;right=0;align=left;spacingLeft=6;overflow=hidden;fontStyle=0" vertex="1" parent="ufYMYRmRnnJekxyFTIQx-125">
          <mxGeometry x="30" width="150" height="30" as="geometry" />
        </mxCell>
        <mxCell id="ufYMYRmRnnJekxyFTIQx-128" value="" style="shape=partialRectangle;collapsible=0;dropTarget=0;pointerEvents=0;fillColor=none;top=0;left=0;bottom=0;right=0;points=[[0,0.5],[1,0.5]];portConstraint=eastwest;" vertex="1" parent="ufYMYRmRnnJekxyFTIQx-121">
          <mxGeometry y="90" width="180" height="30" as="geometry" />
        </mxCell>
        <mxCell id="ufYMYRmRnnJekxyFTIQx-129" value="" style="shape=partialRectangle;connectable=0;fillColor=none;top=0;left=0;bottom=0;right=0;editable=1;overflow=hidden;" vertex="1" parent="ufYMYRmRnnJekxyFTIQx-128">
          <mxGeometry width="30" height="30" as="geometry" />
        </mxCell>
        <mxCell id="ufYMYRmRnnJekxyFTIQx-130" value="CONTENT - TEXT" style="shape=partialRectangle;connectable=0;fillColor=none;top=0;left=0;bottom=0;right=0;align=left;spacingLeft=6;overflow=hidden;" vertex="1" parent="ufYMYRmRnnJekxyFTIQx-128">
          <mxGeometry x="30" width="150" height="30" as="geometry" />
        </mxCell>
        <mxCell id="ufYMYRmRnnJekxyFTIQx-131" value="" style="shape=partialRectangle;collapsible=0;dropTarget=0;pointerEvents=0;fillColor=none;top=0;left=0;bottom=0;right=0;points=[[0,0.5],[1,0.5]];portConstraint=eastwest;" vertex="1" parent="ufYMYRmRnnJekxyFTIQx-121">
          <mxGeometry y="120" width="180" height="30" as="geometry" />
        </mxCell>
        <mxCell id="ufYMYRmRnnJekxyFTIQx-132" value="" style="shape=partialRectangle;connectable=0;fillColor=none;top=0;left=0;bottom=0;right=0;editable=1;overflow=hidden;" vertex="1" parent="ufYMYRmRnnJekxyFTIQx-131">
          <mxGeometry width="30" height="30" as="geometry" />
        </mxCell>
        <mxCell id="ufYMYRmRnnJekxyFTIQx-133" value="DATE - DATE" style="shape=partialRectangle;connectable=0;fillColor=none;top=0;left=0;bottom=0;right=0;align=left;spacingLeft=6;overflow=hidden;" vertex="1" parent="ufYMYRmRnnJekxyFTIQx-131">
          <mxGeometry x="30" width="150" height="30" as="geometry" />
        </mxCell>
        <mxCell id="ufYMYRmRnnJekxyFTIQx-137" value="COMMENTER" style="shape=table;startSize=30;container=1;collapsible=1;childLayout=tableLayout;fixedRows=1;rowLines=1;fontStyle=1;align=center;resizeLast=1;fontSize=12;resizeHeight=1;resizeWidth=1;" vertex="1" parent="1">
          <mxGeometry x="1220" y="130" width="180" height="240" as="geometry">
            <mxRectangle x="90" y="120" width="90" height="30" as="alternateBounds" />
          </mxGeometry>
        </mxCell>
        <mxCell id="ufYMYRmRnnJekxyFTIQx-138" value="" style="shape=partialRectangle;collapsible=0;dropTarget=0;pointerEvents=0;fillColor=none;top=0;left=0;bottom=1;right=0;points=[[0,0.5],[1,0.5]];portConstraint=eastwest;" vertex="1" parent="ufYMYRmRnnJekxyFTIQx-137">
          <mxGeometry y="30" width="180" height="30" as="geometry" />
        </mxCell>
        <mxCell id="ufYMYRmRnnJekxyFTIQx-139" value="PK" style="shape=partialRectangle;connectable=0;fillColor=none;top=0;left=0;bottom=0;right=0;fontStyle=1;overflow=hidden;" vertex="1" parent="ufYMYRmRnnJekxyFTIQx-138">
          <mxGeometry width="30" height="30" as="geometry" />
        </mxCell>
        <mxCell id="ufYMYRmRnnJekxyFTIQx-140" value="COMM_ID" style="shape=partialRectangle;connectable=0;fillColor=none;top=0;left=0;bottom=0;right=0;align=left;spacingLeft=6;fontStyle=5;overflow=hidden;" vertex="1" parent="ufYMYRmRnnJekxyFTIQx-138">
          <mxGeometry x="30" width="150" height="30" as="geometry" />
        </mxCell>
        <mxCell id="ufYMYRmRnnJekxyFTIQx-158" value="" style="shape=partialRectangle;collapsible=0;dropTarget=0;pointerEvents=0;fillColor=none;top=0;left=0;bottom=0;right=0;points=[[0,0.5],[1,0.5]];portConstraint=eastwest;fontSize=12;" vertex="1" parent="ufYMYRmRnnJekxyFTIQx-137">
          <mxGeometry y="60" width="180" height="30" as="geometry" />
        </mxCell>
        <mxCell id="ufYMYRmRnnJekxyFTIQx-159" value="" style="shape=partialRectangle;connectable=0;fillColor=none;top=0;left=0;bottom=0;right=0;editable=1;overflow=hidden;fontStyle=1" vertex="1" parent="ufYMYRmRnnJekxyFTIQx-158">
          <mxGeometry width="30" height="30" as="geometry" />
        </mxCell>
        <mxCell id="ufYMYRmRnnJekxyFTIQx-160" value="BLOG_ID" style="shape=partialRectangle;connectable=0;fillColor=none;top=0;left=0;bottom=0;right=0;align=left;spacingLeft=6;overflow=hidden;fontStyle=1" vertex="1" parent="ufYMYRmRnnJekxyFTIQx-158">
          <mxGeometry x="30" width="150" height="30" as="geometry" />
        </mxCell>
        <mxCell id="ufYMYRmRnnJekxyFTIQx-141" value="" style="shape=partialRectangle;collapsible=0;dropTarget=0;pointerEvents=0;fillColor=none;top=0;left=0;bottom=0;right=0;points=[[0,0.5],[1,0.5]];portConstraint=eastwest;fontStyle=1" vertex="1" parent="ufYMYRmRnnJekxyFTIQx-137">
          <mxGeometry y="90" width="180" height="30" as="geometry" />
        </mxCell>
        <mxCell id="ufYMYRmRnnJekxyFTIQx-142" value="" style="shape=partialRectangle;connectable=0;fillColor=none;top=0;left=0;bottom=0;right=0;editable=1;overflow=hidden;" vertex="1" parent="ufYMYRmRnnJekxyFTIQx-141">
          <mxGeometry width="30" height="30" as="geometry" />
        </mxCell>
        <mxCell id="ufYMYRmRnnJekxyFTIQx-143" value="NAME - NVARCHAR" style="shape=partialRectangle;connectable=0;fillColor=none;top=0;left=0;bottom=0;right=0;align=left;spacingLeft=6;overflow=hidden;fontStyle=0" vertex="1" parent="ufYMYRmRnnJekxyFTIQx-141">
          <mxGeometry x="30" width="150" height="30" as="geometry" />
        </mxCell>
        <mxCell id="ufYMYRmRnnJekxyFTIQx-152" value="" style="shape=partialRectangle;collapsible=0;dropTarget=0;pointerEvents=0;fillColor=none;top=0;left=0;bottom=0;right=0;points=[[0,0.5],[1,0.5]];portConstraint=eastwest;fontSize=12;" vertex="1" parent="ufYMYRmRnnJekxyFTIQx-137">
          <mxGeometry y="120" width="180" height="30" as="geometry" />
        </mxCell>
        <mxCell id="ufYMYRmRnnJekxyFTIQx-153" value="" style="shape=partialRectangle;connectable=0;fillColor=none;top=0;left=0;bottom=0;right=0;editable=1;overflow=hidden;" vertex="1" parent="ufYMYRmRnnJekxyFTIQx-152">
          <mxGeometry width="30" height="30" as="geometry" />
        </mxCell>
        <mxCell id="ufYMYRmRnnJekxyFTIQx-154" value="EMAIL - NVARCHAR" style="shape=partialRectangle;connectable=0;fillColor=none;top=0;left=0;bottom=0;right=0;align=left;spacingLeft=6;overflow=hidden;" vertex="1" parent="ufYMYRmRnnJekxyFTIQx-152">
          <mxGeometry x="30" width="150" height="30" as="geometry" />
        </mxCell>
        <mxCell id="ufYMYRmRnnJekxyFTIQx-144" value="" style="shape=partialRectangle;collapsible=0;dropTarget=0;pointerEvents=0;fillColor=none;top=0;left=0;bottom=0;right=0;points=[[0,0.5],[1,0.5]];portConstraint=eastwest;" vertex="1" parent="ufYMYRmRnnJekxyFTIQx-137">
          <mxGeometry y="150" width="180" height="30" as="geometry" />
        </mxCell>
        <mxCell id="ufYMYRmRnnJekxyFTIQx-145" value="" style="shape=partialRectangle;connectable=0;fillColor=none;top=0;left=0;bottom=0;right=0;editable=1;overflow=hidden;" vertex="1" parent="ufYMYRmRnnJekxyFTIQx-144">
          <mxGeometry width="30" height="30" as="geometry" />
        </mxCell>
        <mxCell id="ufYMYRmRnnJekxyFTIQx-146" value="COMMENT - TEXT" style="shape=partialRectangle;connectable=0;fillColor=none;top=0;left=0;bottom=0;right=0;align=left;spacingLeft=6;overflow=hidden;" vertex="1" parent="ufYMYRmRnnJekxyFTIQx-144">
          <mxGeometry x="30" width="150" height="30" as="geometry" />
        </mxCell>
        <mxCell id="ufYMYRmRnnJekxyFTIQx-147" value="" style="shape=partialRectangle;collapsible=0;dropTarget=0;pointerEvents=0;fillColor=none;top=0;left=0;bottom=0;right=0;points=[[0,0.5],[1,0.5]];portConstraint=eastwest;" vertex="1" parent="ufYMYRmRnnJekxyFTIQx-137">
          <mxGeometry y="180" width="180" height="30" as="geometry" />
        </mxCell>
        <mxCell id="ufYMYRmRnnJekxyFTIQx-148" value="" style="shape=partialRectangle;connectable=0;fillColor=none;top=0;left=0;bottom=0;right=0;editable=1;overflow=hidden;" vertex="1" parent="ufYMYRmRnnJekxyFTIQx-147">
          <mxGeometry width="30" height="30" as="geometry" />
        </mxCell>
        <mxCell id="ufYMYRmRnnJekxyFTIQx-149" value="COMM_DATE - DATE" style="shape=partialRectangle;connectable=0;fillColor=none;top=0;left=0;bottom=0;right=0;align=left;spacingLeft=6;overflow=hidden;" vertex="1" parent="ufYMYRmRnnJekxyFTIQx-147">
          <mxGeometry x="30" width="150" height="30" as="geometry" />
        </mxCell>
        <mxCell id="ufYMYRmRnnJekxyFTIQx-175" value="" style="shape=partialRectangle;collapsible=0;dropTarget=0;pointerEvents=0;fillColor=none;top=0;left=0;bottom=0;right=0;points=[[0,0.5],[1,0.5]];portConstraint=eastwest;fontSize=12;" vertex="1" parent="ufYMYRmRnnJekxyFTIQx-137">
          <mxGeometry y="210" width="180" height="30" as="geometry" />
        </mxCell>
        <mxCell id="ufYMYRmRnnJekxyFTIQx-176" value="" style="shape=partialRectangle;connectable=0;fillColor=none;top=0;left=0;bottom=0;right=0;editable=1;overflow=hidden;" vertex="1" parent="ufYMYRmRnnJekxyFTIQx-175">
          <mxGeometry width="30" height="30" as="geometry" />
        </mxCell>
        <mxCell id="ufYMYRmRnnJekxyFTIQx-177" value="LANGUAGE - VARCHAR" style="shape=partialRectangle;connectable=0;fillColor=none;top=0;left=0;bottom=0;right=0;align=left;spacingLeft=6;overflow=hidden;" vertex="1" parent="ufYMYRmRnnJekxyFTIQx-175">
          <mxGeometry x="30" width="150" height="30" as="geometry" />
        </mxCell>
        <mxCell id="ufYMYRmRnnJekxyFTIQx-162" value="BLOG_TR" style="shape=table;startSize=30;container=1;collapsible=1;childLayout=tableLayout;fixedRows=1;rowLines=1;fontStyle=1;align=center;resizeLast=1;fontSize=12;resizeHeight=1;resizeWidth=1;" vertex="1" parent="1">
          <mxGeometry x="940" y="330" width="180" height="150" as="geometry">
            <mxRectangle x="90" y="120" width="90" height="30" as="alternateBounds" />
          </mxGeometry>
        </mxCell>
        <mxCell id="ufYMYRmRnnJekxyFTIQx-163" value="" style="shape=partialRectangle;collapsible=0;dropTarget=0;pointerEvents=0;fillColor=none;top=0;left=0;bottom=1;right=0;points=[[0,0.5],[1,0.5]];portConstraint=eastwest;" vertex="1" parent="ufYMYRmRnnJekxyFTIQx-162">
          <mxGeometry y="30" width="180" height="30" as="geometry" />
        </mxCell>
        <mxCell id="ufYMYRmRnnJekxyFTIQx-164" value="PK" style="shape=partialRectangle;connectable=0;fillColor=none;top=0;left=0;bottom=0;right=0;fontStyle=1;overflow=hidden;" vertex="1" parent="ufYMYRmRnnJekxyFTIQx-163">
          <mxGeometry width="30" height="30" as="geometry" />
        </mxCell>
        <mxCell id="ufYMYRmRnnJekxyFTIQx-165" value="BLOG_ID" style="shape=partialRectangle;connectable=0;fillColor=none;top=0;left=0;bottom=0;right=0;align=left;spacingLeft=6;fontStyle=5;overflow=hidden;" vertex="1" parent="ufYMYRmRnnJekxyFTIQx-163">
          <mxGeometry x="30" width="150" height="30" as="geometry" />
        </mxCell>
        <mxCell id="ufYMYRmRnnJekxyFTIQx-166" value="" style="shape=partialRectangle;collapsible=0;dropTarget=0;pointerEvents=0;fillColor=none;top=0;left=0;bottom=0;right=0;points=[[0,0.5],[1,0.5]];portConstraint=eastwest;fontStyle=1" vertex="1" parent="ufYMYRmRnnJekxyFTIQx-162">
          <mxGeometry y="60" width="180" height="30" as="geometry" />
        </mxCell>
        <mxCell id="ufYMYRmRnnJekxyFTIQx-167" value="" style="shape=partialRectangle;connectable=0;fillColor=none;top=0;left=0;bottom=0;right=0;editable=1;overflow=hidden;" vertex="1" parent="ufYMYRmRnnJekxyFTIQx-166">
          <mxGeometry width="30" height="30" as="geometry" />
        </mxCell>
        <mxCell id="ufYMYRmRnnJekxyFTIQx-168" value="TITLE - NVARCHAR" style="shape=partialRectangle;connectable=0;fillColor=none;top=0;left=0;bottom=0;right=0;align=left;spacingLeft=6;overflow=hidden;fontStyle=0" vertex="1" parent="ufYMYRmRnnJekxyFTIQx-166">
          <mxGeometry x="30" width="150" height="30" as="geometry" />
        </mxCell>
        <mxCell id="ufYMYRmRnnJekxyFTIQx-169" value="" style="shape=partialRectangle;collapsible=0;dropTarget=0;pointerEvents=0;fillColor=none;top=0;left=0;bottom=0;right=0;points=[[0,0.5],[1,0.5]];portConstraint=eastwest;" vertex="1" parent="ufYMYRmRnnJekxyFTIQx-162">
          <mxGeometry y="90" width="180" height="30" as="geometry" />
        </mxCell>
        <mxCell id="ufYMYRmRnnJekxyFTIQx-170" value="" style="shape=partialRectangle;connectable=0;fillColor=none;top=0;left=0;bottom=0;right=0;editable=1;overflow=hidden;" vertex="1" parent="ufYMYRmRnnJekxyFTIQx-169">
          <mxGeometry width="30" height="30" as="geometry" />
        </mxCell>
        <mxCell id="ufYMYRmRnnJekxyFTIQx-171" value="CONTENT - TEXT" style="shape=partialRectangle;connectable=0;fillColor=none;top=0;left=0;bottom=0;right=0;align=left;spacingLeft=6;overflow=hidden;" vertex="1" parent="ufYMYRmRnnJekxyFTIQx-169">
          <mxGeometry x="30" width="150" height="30" as="geometry" />
        </mxCell>
        <mxCell id="ufYMYRmRnnJekxyFTIQx-172" value="" style="shape=partialRectangle;collapsible=0;dropTarget=0;pointerEvents=0;fillColor=none;top=0;left=0;bottom=0;right=0;points=[[0,0.5],[1,0.5]];portConstraint=eastwest;" vertex="1" parent="ufYMYRmRnnJekxyFTIQx-162">
          <mxGeometry y="120" width="180" height="30" as="geometry" />
        </mxCell>
        <mxCell id="ufYMYRmRnnJekxyFTIQx-173" value="" style="shape=partialRectangle;connectable=0;fillColor=none;top=0;left=0;bottom=0;right=0;editable=1;overflow=hidden;" vertex="1" parent="ufYMYRmRnnJekxyFTIQx-172">
          <mxGeometry width="30" height="30" as="geometry" />
        </mxCell>
        <mxCell id="ufYMYRmRnnJekxyFTIQx-174" value="DATE - DATE" style="shape=partialRectangle;connectable=0;fillColor=none;top=0;left=0;bottom=0;right=0;align=left;spacingLeft=6;overflow=hidden;" vertex="1" parent="ufYMYRmRnnJekxyFTIQx-172">
          <mxGeometry x="30" width="150" height="30" as="geometry" />
        </mxCell>
      </root>
    </mxGraphModel>
  </diagram>
</mxfile>
